<svg width="23" height="23" viewBox="0 0 23 23" fill="none" xmlns="http://www.w3.org/2000/svg">
<path fill-rule="evenodd" clip-rule="evenodd" d="M6.13359 0.75C6.33713 0.75 6.53233 0.83278 6.67625 0.98013C6.82017 1.12748 6.90102 1.32733 6.90102 1.53571V2.33505C7.5784 2.32143 8.32434 2.32143 9.146 2.32143H13.3535C14.1752 2.32143 14.9211 2.32143 15.5985 2.33505V1.53571C15.5985 1.32733 15.6794 1.12748 15.8233 0.98013C15.9672 0.83278 16.1624 0.75 16.3659 0.75C16.5695 0.75 16.7647 0.83278 16.9086 0.98013C17.0525 1.12748 17.1334 1.32733 17.1334 1.53571V2.4021C17.3994 2.42305 17.6511 2.44924 17.8895 2.48171C19.0888 2.64724 20.0598 2.99505 20.8262 3.77867C21.5916 4.56333 21.9313 5.55752 22.093 6.78533C22.1441 7.17819 22.1789 7.60667 22.2025 8.07391C22.2583 8.22844 22.2651 8.39709 22.2219 8.55581C22.2495 9.39495 22.2495 10.3493 22.2495 11.4294V13.642C22.2495 15.5675 22.2495 17.0929 22.093 18.2861C21.9313 19.5139 21.5916 20.5081 20.8262 21.2928C20.0598 22.0764 19.0888 22.4242 17.8895 22.5897C16.723 22.75 15.2342 22.75 13.3535 22.75H9.146C7.26529 22.75 5.77546 22.75 4.61 22.5897C3.41077 22.4242 2.43972 22.0764 1.67332 21.2928C0.907939 20.5081 0.568226 19.5139 0.406555 18.2861C0.25 17.0918 0.25 15.5675 0.25 13.642V11.4294C0.25 10.3493 0.25 9.39495 0.277627 8.55476C0.234929 8.3959 0.242088 8.22732 0.298092 8.07286C0.320603 7.60667 0.355393 7.17819 0.406555 6.78533C0.568226 5.55752 0.907939 4.56333 1.67332 3.77867C2.43972 2.99505 3.41077 2.64724 4.61 2.48171C4.84841 2.44924 5.10115 2.42305 5.36617 2.4021V1.53571C5.36617 1.32733 5.44702 1.12748 5.59094 0.98013C5.73486 0.83278 5.93006 0.75 6.13359 0.75ZM1.79815 9.13095C1.78485 9.81505 1.78485 10.5934 1.78485 11.4881V13.5833C1.78485 15.5811 1.7869 17.0007 1.9281 18.0776C2.06624 19.1305 2.32614 19.7381 2.75897 20.1812C3.1918 20.6244 3.78527 20.8905 4.81465 21.0319C5.86653 21.1765 7.25199 21.1786 9.2033 21.1786H13.2962C15.2475 21.1786 16.634 21.1765 17.6859 21.0319C18.7143 20.8905 19.3077 20.6244 19.7406 20.1812C20.1734 19.7381 20.4333 19.1305 20.5714 18.0766C20.7126 17.0007 20.7147 15.5811 20.7147 13.5833V11.4881C20.7147 10.5934 20.7147 9.81505 20.7014 9.13095H1.79815ZM20.6308 7.55952H1.86876C1.88513 7.36048 1.90457 7.17295 1.9281 6.99381C2.06624 5.94095 2.32614 5.33333 2.75897 4.89019C3.1918 4.44705 3.78527 4.18095 4.81465 4.03952C5.86653 3.89495 7.25199 3.89286 9.2033 3.89286H13.2962C15.2475 3.89286 16.634 3.89495 17.6859 4.03952C18.7143 4.18095 19.3077 4.44705 19.7406 4.89019C20.1734 5.33333 20.4333 5.94095 20.5714 6.99486C20.595 7.17295 20.6144 7.36152 20.6308 7.55952ZM15.8543 15.4167C15.6508 15.4167 15.4556 15.4994 15.3117 15.6468C15.1677 15.7941 15.0869 15.994 15.0869 16.2024C15.0869 16.4108 15.1677 16.6106 15.3117 16.758C15.4556 16.9053 15.6508 16.9881 15.8543 16.9881C16.0579 16.9881 16.253 16.9053 16.397 16.758C16.5409 16.6106 16.6217 16.4108 16.6217 16.2024C16.6217 15.994 16.5409 15.7941 16.397 15.6468C16.253 15.4994 16.0579 15.4167 15.8543 15.4167ZM13.552 16.2024C13.552 15.8928 13.6116 15.5863 13.7273 15.3003C13.843 15.0144 14.0126 14.7545 14.2264 14.5356C14.4401 14.3167 14.6939 14.1431 14.9733 14.0247C15.2526 13.9062 15.552 13.8452 15.8543 13.8452C16.1567 13.8452 16.456 13.9062 16.7354 14.0247C17.0147 14.1431 17.2685 14.3167 17.4823 14.5356C17.6961 14.7545 17.8656 15.0144 17.9813 15.3003C18.097 15.5863 18.1566 15.8928 18.1566 16.2024C18.1566 16.8275 17.914 17.4271 17.4823 17.8691C17.0505 18.3112 16.4649 18.5595 15.8543 18.5595C15.2437 18.5595 14.6581 18.3112 14.2264 17.8691C13.7946 17.4271 13.552 16.8275 13.552 16.2024Z" fill="#7F7F7F"/>
</svg>
