<svg width="20" height="20" viewBox="0 0 20 20" fill="none" xmlns="http://www.w3.org/2000/svg">
<g opacity="0.2" clip-path="url(#clip0_305_29)">
<path d="M9.0722 2.80555C10.2756 2.80445 11.4523 3.16029 12.4534 3.82807C13.4546 4.49585 14.2351 5.44555 14.6964 6.55704C15.1577 7.66852 15.279 8.89185 15.0449 10.0723C14.8108 11.2527 14.2318 12.3372 13.3813 13.1885C12.5307 14.0398 11.4468 14.6197 10.2666 14.8549C9.0864 15.0901 7.86296 14.9699 6.75105 14.5097C5.63914 14.0494 4.68873 13.2697 4.02004 12.2692C3.35135 11.2687 2.99442 10.0923 2.99442 8.88888C3.00172 7.27869 3.64422 5.73644 4.78229 4.59733C5.92036 3.45822 7.46202 2.81431 9.0722 2.80555ZM9.0722 1.66666C7.64378 1.66666 6.24744 2.09023 5.05975 2.88382C3.87206 3.67741 2.94637 4.80537 2.39974 6.12505C1.8531 7.44474 1.71008 8.89689 1.98875 10.2979C2.26742 11.6988 2.95527 12.9857 3.96532 13.9958C4.97536 15.0058 6.26224 15.6937 7.66322 15.9723C9.06419 16.251 10.5163 16.108 11.836 15.5613C13.1557 15.0147 14.2837 14.089 15.0773 12.9013C15.8708 11.7136 16.2944 10.3173 16.2944 8.88888C16.2944 6.97343 15.5335 5.13643 14.1791 3.782C12.8247 2.42757 10.9877 1.66666 9.0722 1.66666Z" fill="#7F7F7F"/>
<path d="M19.4445 18.4944L15.35 14.3722L14.5612 15.1556L18.6556 19.2778C18.707 19.3296 18.7682 19.3707 18.8355 19.3989C18.9029 19.4271 18.9751 19.4417 19.0481 19.442C19.1211 19.4422 19.1934 19.4281 19.261 19.4004C19.3285 19.3727 19.3899 19.332 19.4417 19.2806C19.4935 19.2291 19.5347 19.168 19.5628 19.1006C19.591 19.0333 19.6057 18.9611 19.6059 18.8881C19.6062 18.8151 19.592 18.7427 19.5644 18.6752C19.5367 18.6077 19.4959 18.5462 19.4445 18.4944Z" fill="#7F7F7F"/>
</g>
<defs>
<clipPath id="clip0_305_29">
<rect width="20" height="20" fill="white"/>
</clipPath>
</defs>
</svg>
