<svg width="32" height="32" viewBox="0 0 32 32" fill="none" xmlns="http://www.w3.org/2000/svg">
<path d="M14 18.6667H22.6667M9.33337 18.6667H10M9.33337 14H10M9.33337 23.3333H10M14 14H22.6667M14 23.3333H22.6667" stroke="#DADAE1" stroke-width="1.5" stroke-linecap="round"/>
<path d="M10.6666 4.66666C10.6666 4.13623 10.8773 3.62752 11.2524 3.25245C11.6275 2.87738 12.1362 2.66666 12.6666 2.66666H19.3333C19.8637 2.66666 20.3724 2.87738 20.7475 3.25245C21.1226 3.62752 21.3333 4.13623 21.3333 4.66666V6C21.3333 6.53043 21.1226 7.03914 20.7475 7.41421C20.3724 7.78928 19.8637 8 19.3333 8H12.6666C12.1362 8 11.6275 7.78928 11.2524 7.41421C10.8773 7.03914 10.6666 6.53043 10.6666 6V4.66666Z" stroke="#DADAE1" stroke-width="1.5"/>
<path d="M28 21.3333C28 25.1053 28 26.9907 26.828 28.1627C25.6573 29.3333 23.7707 29.3333 20 29.3333H12C8.22933 29.3333 6.34267 29.3333 5.172 28.1627C4 26.9893 4 25.1053 4 21.3333V17.3333M21.3333 5.336C24.2333 5.352 25.804 5.48133 26.828 6.50533C28 7.67733 28 9.56267 28 13.3333V16M10.6667 5.336C7.76667 5.352 6.196 5.48133 5.172 6.50533C4.14667 7.52933 4.01867 9.1 4.00267 12" stroke="#DADAE1" stroke-width="1.5" stroke-linecap="round"/>
</svg>
