<svg width="24" height="22" viewBox="0 0 24 22" fill="none" xmlns="http://www.w3.org/2000/svg">
<path d="M16.9978 18H19.9989M19.9989 18H23M19.9989 18V15M19.9989 18V21" stroke="#DADAE1" stroke-width="1.5" stroke-linecap="round" stroke-linejoin="round"/>
<path d="M11.0036 4C11.0036 2.34315 9.66 1 8.00255 1C6.34509 1 5.00146 2.34315 5.00146 4V10C5.00146 11.6569 6.34509 13 8.00255 13C9.66 13 11.0036 11.6569 11.0036 10V4Z" stroke="#DADAE1" stroke-width="1.5"/>
<path d="M1 9V10C1 11.8565 1.73777 13.637 3.051 14.9497C4.36423 16.2625 6.14536 17 8.00255 17M8.00255 17C9.85974 17 11.6409 16.2625 12.9541 14.9497C14.2673 13.637 15.0051 11.8565 15.0051 10V9M8.00255 17V21M8.00255 21H5.00145M8.00255 21H11.0036" stroke="#DADAE1" stroke-width="1.5" stroke-linecap="round" stroke-linejoin="round"/>
</svg>
