<svg width="19" height="19" viewBox="0 0 19 19" fill="none" xmlns="http://www.w3.org/2000/svg">
<path d="M10.6857 8.11431V1.68574C10.6857 1.34475 10.5503 1.01772 10.3092 0.776601C10.068 0.535483 9.74102 0.400024 9.40002 0.400024C9.05903 0.400024 8.732 0.535483 8.49089 0.776601C8.24977 1.01772 8.11431 1.34475 8.11431 1.68574V8.11431H1.68574C1.34475 8.11431 1.01772 8.24977 0.776601 8.49089C0.535483 8.732 0.400024 9.05903 0.400024 9.40002C0.400024 9.74102 0.535483 10.068 0.776601 10.3092C1.01772 10.5503 1.34475 10.6857 1.68574 10.6857H8.11431V17.1143C8.11431 17.4553 8.24977 17.7823 8.49089 18.0234C8.732 18.2646 9.05903 18.4 9.40002 18.4C9.74102 18.4 10.068 18.2646 10.3092 18.0234C10.5503 17.7823 10.6857 17.4553 10.6857 17.1143V10.6857H17.1143C17.4553 10.6857 17.7823 10.5503 18.0234 10.3092C18.2646 10.068 18.4 9.74102 18.4 9.40002C18.4 9.05903 18.2646 8.732 18.0234 8.49089C17.7823 8.24977 17.4553 8.11431 17.1143 8.11431H10.6857Z" fill="#7F7F7F"/>
</svg>
