<svg width="30" height="30" viewBox="0 0 30 30" fill="none" xmlns="http://www.w3.org/2000/svg">
<path d="M15 8.75V17.5M15 17.5L18.75 13.75M15 17.5L11.25 13.75" stroke="#7F7F7F" stroke-width="1.5" stroke-linecap="round" stroke-linejoin="round"/>
<path d="M20 21.25H10M27.5 15C27.5 20.8925 27.5 23.8387 25.6687 25.6687C23.84 27.5 20.8925 27.5 15 27.5C9.1075 27.5 6.16125 27.5 4.33 25.6687C2.5 23.84 2.5 20.8925 2.5 15C2.5 9.1075 2.5 6.16125 4.33 4.33C6.1625 2.5 9.1075 2.5 15 2.5C20.8925 2.5 23.8387 2.5 25.6687 4.33C26.8862 5.5475 27.2937 7.25875 27.4312 10" stroke="#7F7F7F" stroke-width="1.5" stroke-linecap="round"/>
</svg>
