<svg width="30" height="30" viewBox="0 0 30 30" fill="none" xmlns="http://www.w3.org/2000/svg">
<path d="M21.3 10.1H17.604C17.4571 10.1001 17.314 10.1464 17.1949 10.2323C17.0759 10.3182 16.9868 10.4394 16.9404 10.5788L16.0066 13.3788C15.9715 13.4841 15.962 13.5962 15.9788 13.7059C15.9956 13.8156 16.0382 13.9197 16.1032 14.0097C16.1681 14.0997 16.2535 14.1729 16.3524 14.2234C16.4512 14.2739 16.5606 14.3001 16.6716 14.3H18.5C19.2426 14.3 19.9548 14.595 20.4799 15.1201C21.005 15.6452 21.3 16.3574 21.3 17.1C21.3 17.8426 21.005 18.5548 20.4799 19.0799C19.9548 19.605 19.2426 19.9 18.5 19.9H15.7" stroke="#7F7F7F" stroke-width="1.5" stroke-linecap="round"/>
<path d="M8.7 12.9L12.2 10.1V19.9" stroke="#7F7F7F" stroke-width="1.5" stroke-linecap="round" stroke-linejoin="round"/>
<path d="M12.2 4.5L15 1C7.2678 1 1 7.2678 1 15C1 15.959 1.0966 16.8956 1.28 17.8M20.6 2.1648C25.5448 4.325 29 9.26 29 15C29 22.7322 22.7322 29 15 29C12.8263 29.0017 10.6821 28.4965 8.73783 27.5243C6.79357 26.5522 5.10285 25.14 3.8 23.4" stroke="#7F7F7F" stroke-width="1.5" stroke-linecap="round" stroke-linejoin="round"/>
</svg>
