<svg width="32" height="32" viewBox="0 0 32 32" fill="none" xmlns="http://www.w3.org/2000/svg">
<path d="M21.7143 14.8571C21.7143 16.3726 21.1122 17.8261 20.0406 18.8977C18.969 19.9694 17.5155 20.5714 16 20.5714C14.4845 20.5714 13.031 19.9694 11.9594 18.8977C10.8878 17.8261 10.2857 16.3726 10.2857 14.8571V6.85711C10.2857 5.34159 10.8878 3.88813 11.9594 2.8165C13.031 1.74486 14.4845 1.14282 16 1.14282C17.5155 1.14282 18.969 1.74486 20.0406 2.8165C21.1122 3.88813 21.7143 5.34159 21.7143 6.85711V14.8571Z" stroke="#DADAE1" stroke-linecap="round" stroke-linejoin="round"/>
<path d="M27.4286 16C27.4316 17.3516 27.1676 18.6905 26.6518 19.9397C26.1359 21.189 25.3784 22.3241 24.4227 23.2798C23.467 24.2355 22.3319 24.9931 21.0826 25.5089C19.8333 26.0247 18.4944 26.2887 17.1429 26.2857H14.8571C13.5056 26.2887 12.1667 26.0247 10.9174 25.5089C9.66813 24.9931 8.53304 24.2355 7.57733 23.2798C6.62161 22.3241 5.86408 21.189 5.34824 19.9397C4.83241 18.6905 4.56842 17.3516 4.57143 16M16 26.2857V30.8571" stroke="#DADAE1" stroke-linecap="round" stroke-linejoin="round"/>
</svg>
