<svg width="32" height="32" viewBox="0 0 32 32" fill="none" xmlns="http://www.w3.org/2000/svg">
<path d="M10.6667 12.6667C10.6667 12.0453 10.6667 11.7347 10.768 11.4893C10.9036 11.1633 11.163 10.9043 11.4893 10.7693C11.7347 10.6667 12.0453 10.6667 12.6667 10.6667C13.288 10.6667 13.5987 10.6667 13.844 10.768C14.17 10.9036 14.429 11.163 14.564 11.4893C14.6667 11.7347 14.6667 12.0453 14.6667 12.6667V19.3333C14.6667 19.9547 14.6667 20.2653 14.5653 20.5107C14.4297 20.8367 14.1703 21.0957 13.844 21.2307C13.5987 21.3333 13.288 21.3333 12.6667 21.3333C12.0453 21.3333 11.7347 21.3333 11.4893 21.232C11.1633 21.0964 10.9043 20.837 10.7693 20.5107C10.6667 20.2653 10.6667 19.9547 10.6667 19.3333V12.6667ZM17.3333 12.6667C17.3333 12.0453 17.3333 11.7347 17.4347 11.4893C17.5703 11.1633 17.8297 10.9043 18.156 10.7693C18.4013 10.6667 18.712 10.6667 19.3333 10.6667C19.9547 10.6667 20.2653 10.6667 20.5107 10.768C20.8367 10.9036 21.0956 11.163 21.2307 11.4893C21.3333 11.7347 21.3333 12.0453 21.3333 12.6667V19.3333C21.3333 19.9547 21.3333 20.2653 21.232 20.5107C21.0964 20.8367 20.837 21.0957 20.5107 21.2307C20.2653 21.3333 19.9547 21.3333 19.3333 21.3333C18.712 21.3333 18.4013 21.3333 18.156 21.232C17.8299 21.0964 17.571 20.837 17.436 20.5107C17.3333 20.2653 17.3333 19.9547 17.3333 19.3333V12.6667Z" stroke="#DADAE1" stroke-width="1.5"/>
<path d="M9.33332 4.45067C11.3594 3.27853 13.6593 2.66306 16 2.66667C23.364 2.66667 29.3333 8.636 29.3333 16C29.3333 23.364 23.364 29.3333 16 29.3333C8.63599 29.3333 2.66666 23.364 2.66666 16C2.66666 13.572 3.31599 11.2933 4.45066 9.33333" stroke="#DADAE1" stroke-width="1.5" stroke-linecap="round"/>
</svg>
