<svg width="34" height="34" viewBox="0 0 34 34" fill="none" xmlns="http://www.w3.org/2000/svg">
<path d="M10.6 13.0001C10.6 12.2545 10.6 11.8817 10.7216 11.5873C10.8843 11.196 11.1956 10.8853 11.5872 10.7233C11.8816 10.6001 12.2544 10.6001 13 10.6001C13.7456 10.6001 14.1184 10.6001 14.4128 10.7217C14.804 10.8844 15.1148 11.1957 15.2768 11.5873C15.4 11.8817 15.4 12.2545 15.4 13.0001V21.0001C15.4 21.7457 15.4 22.1185 15.2784 22.4129C15.1156 22.8042 14.8043 23.1149 14.4128 23.2769C14.1184 23.4001 13.7456 23.4001 13 23.4001C12.2544 23.4001 11.8816 23.4001 11.5872 23.2785C11.1959 23.1158 10.8852 22.8045 10.7232 22.4129C10.6 22.1185 10.6 21.7457 10.6 21.0001V13.0001ZM18.6 13.0001C18.6 12.2545 18.6 11.8817 18.7216 11.5873C18.8843 11.196 19.1956 10.8853 19.5872 10.7233C19.8816 10.6001 20.2544 10.6001 21 10.6001C21.7456 10.6001 22.1184 10.6001 22.4128 10.7217C22.804 10.8844 23.1148 11.1957 23.2768 11.5873C23.4 11.8817 23.4 12.2545 23.4 13.0001V21.0001C23.4 21.7457 23.4 22.1185 23.2784 22.4129C23.1156 22.8042 22.8043 23.1149 22.4128 23.2769C22.1184 23.4001 21.7456 23.4001 21 23.4001C20.2544 23.4001 19.8816 23.4001 19.5872 23.2785C19.1959 23.1158 18.8852 22.8045 18.7232 22.4129C18.6 22.1185 18.6 21.7457 18.6 21.0001V13.0001Z" stroke="#7F7F7F" stroke-width="1.5"/>
<path d="M9 3.14082C11.4312 1.73426 14.1912 0.995691 17 1.00002C25.8368 1.00002 33 8.16321 33 17C33 25.8368 25.8368 33 17 33C8.1632 33 1 25.8368 1 17C1 14.0864 1.7792 11.352 3.1408 9.00001" stroke="#7F7F7F" stroke-width="1.5" stroke-linecap="round"/>
</svg>
