<svg width="30" height="30" viewBox="0 0 30 30" fill="none" xmlns="http://www.w3.org/2000/svg">
<path d="M17.36 12.4188C18.7037 13.515 19.375 14.0625 19.375 15C19.375 15.9375 18.7037 16.485 17.36 17.5812C16.9887 17.8837 16.6213 18.1687 16.2825 18.4062C15.9863 18.615 15.65 18.83 15.3025 19.0412C13.9612 19.8562 13.2913 20.2637 12.69 19.8125C12.09 19.3625 12.035 18.4175 11.925 16.5275C11.895 15.9937 11.875 15.47 11.875 15C11.875 14.53 11.895 14.0062 11.925 13.4725C12.035 11.5825 12.09 10.6387 12.69 10.1875C13.2913 9.73625 13.9625 10.1438 15.3025 10.9588C15.65 11.17 15.9863 11.385 16.2825 11.5937C16.62 11.8312 16.9887 12.1163 17.36 12.4188Z" stroke="#7F7F7F" stroke-width="1.5"/>
<path d="M8.75 4.1725C10.6494 3.07363 12.8056 2.49662 15 2.5C21.9037 2.5 27.5 8.09625 27.5 15C27.5 21.9037 21.9037 27.5 15 27.5C8.09625 27.5 2.5 21.9037 2.5 15C2.5 12.7237 3.10875 10.5875 4.1725 8.75" stroke="#7F7F7F" stroke-width="1.5" stroke-linecap="round"/>
</svg>
