<svg width="30" height="30" viewBox="0 0 30 30" fill="none" xmlns="http://www.w3.org/2000/svg">
<path d="M21.3 10.1H17.604C17.4572 10.1001 17.3141 10.1464 17.195 10.2323C17.0759 10.3182 16.9868 10.4394 16.9404 10.5788L16.0066 13.3788C15.9715 13.4841 15.962 13.5962 15.9788 13.7059C15.9956 13.8156 16.0382 13.9197 16.1032 14.0097C16.1681 14.0997 16.2536 14.1729 16.3524 14.2234C16.4512 14.2739 16.5606 14.3001 16.6716 14.3H18.5C19.2426 14.3 19.9548 14.595 20.4799 15.1201C21.005 15.6452 21.3 16.3574 21.3 17.1C21.3 17.8426 21.005 18.5548 20.4799 19.0799C19.9548 19.605 19.2426 19.9 18.5 19.9H15.7" stroke="#DADAE1" stroke-width="1.5" stroke-linecap="round"/>
<path d="M8.70001 12.9L12.2 10.1V19.9" stroke="#DADAE1" stroke-width="1.5" stroke-linecap="round" stroke-linejoin="round"/>
<path d="M17.8 4.5L15 1C22.7322 1 29 7.2678 29 15C29 22.7322 22.7322 29 15 29C12.8264 29.0018 10.6823 28.4967 8.73811 27.5248C6.79388 26.553 5.10308 25.1411 3.80001 23.4014M9.40001 2.1648C7.83915 2.84819 6.4159 3.81031 5.20001 5.004C3.86856 6.30578 2.81105 7.86081 2.08975 9.57752C1.36844 11.2942 0.997921 13.1379 1.00001 15C1.00001 15.959 1.09661 16.8956 1.28001 17.8" stroke="#DADAE1" stroke-width="1.5" stroke-linecap="round" stroke-linejoin="round"/>
</svg>
