<svg width="22" height="24" viewBox="0 0 22 24" fill="none" xmlns="http://www.w3.org/2000/svg">
<path d="M21 5.63382H1M7.67059 3.31833C7.91365 2.64043 8.3644 2.05341 8.96071 1.6382C9.55701 1.22298 10.2695 1 11 1C11.7305 1 12.443 1.22298 13.0393 1.6382C13.6356 2.05341 14.0864 2.64043 14.3294 3.31833M18.4976 16.5166C18.2894 19.5893 18.1859 21.1256 17.1682 22.0622C16.1506 23 14.5859 23 11.4553 23H10.5447C7.41529 23 5.85059 23 4.83176 22.0622C3.81412 21.1256 3.71059 19.5893 3.50235 16.5166L2.96118 8.52818M19.0388 8.52818L18.8035 12.0014" stroke="#DADAE1" stroke-width="2" stroke-linecap="round"/>
</svg>
