<svg width="21" height="25" viewBox="0 0 21 25" fill="none" xmlns="http://www.w3.org/2000/svg">
<path fill-rule="evenodd" clip-rule="evenodd" d="M10.2499 0.25C8.81021 0.25 7.42944 0.808636 6.41139 1.80302C5.39334 2.79739 4.82141 4.14606 4.82141 5.55233C4.82141 6.95859 5.39334 8.30726 6.41139 9.30164C7.42944 10.296 8.81021 10.8547 10.2499 10.8547C11.6897 10.8547 13.0705 10.296 14.0885 9.30164C15.1065 8.30726 15.6785 6.95859 15.6785 5.55233C15.6785 4.14606 15.1065 2.79739 14.0885 1.80302C13.0705 0.808636 11.6897 0.25 10.2499 0.25ZM6.53568 5.55233C6.53568 4.59015 6.92701 3.66737 7.62357 2.98701C8.32013 2.30664 9.26486 1.92442 10.2499 1.92442C11.235 1.92442 12.1798 2.30664 12.8763 2.98701C13.5729 3.66737 13.9642 4.59015 13.9642 5.55233C13.9642 6.51451 13.5729 7.43728 12.8763 8.11764C12.1798 8.79801 11.235 9.18023 10.2499 9.18023C9.26486 9.18023 8.32013 8.79801 7.62357 8.11764C6.92701 7.43728 6.53568 6.51451 6.53568 5.55233ZM10.2499 12.5291C7.60653 12.5291 5.16998 13.1162 3.36542 14.1075C1.58714 15.0853 0.25001 16.5655 0.25001 18.3895V18.5034C0.248868 19.8005 0.247725 21.428 1.70943 22.5912C2.42828 23.1627 3.43513 23.5702 4.79512 23.8381C6.1574 24.1082 7.93453 24.25 10.2499 24.25C12.5654 24.25 14.3413 24.1082 15.7059 23.8381C17.0659 23.5702 18.0716 23.1627 18.7916 22.5912C20.2533 21.428 20.251 19.8005 20.2499 18.5034V18.3895C20.2499 16.5655 18.9127 15.0853 17.1356 14.1075C15.3299 13.1162 12.8945 12.5291 10.2499 12.5291ZM1.96429 18.3895C1.96429 17.4396 2.67514 16.4081 4.20541 15.5676C5.7094 14.7415 7.84425 14.2035 10.2511 14.2035C12.6556 14.2035 14.7905 14.7415 16.2945 15.5676C17.8259 16.4081 18.5356 17.4396 18.5356 18.3895C18.5356 19.8496 18.4899 20.6712 17.7082 21.2919C17.2853 21.629 16.5768 21.9583 15.3653 22.1972C14.1573 22.436 12.5059 22.5756 10.2499 22.5756C7.99396 22.5756 6.3414 22.436 5.13455 22.1972C3.92313 21.9583 3.21456 21.629 2.79171 21.293C2.01 20.6712 1.96429 19.8496 1.96429 18.3895Z" fill="#7F7F7F"/>
</svg>
